<svg xmlns="http://www.w3.org/2000/svg" viewBox="0 0 500 500"><g id="freepik--background-complete--inject-101"><path d="M390.667,281.698c3.073-13.695,8.249-19.72,10.401-33.829,2.497-16.37,2.495-47.637-7.216-57.071-18.009,26.123-19.457,68.566-17.56,92.425-11.799-32.3-29.106-62.576-50.848-88.948-3.823,17.509-1.01,36.458,6.43,53.06,7.44,16.602,19.313,30.931,33.138,42.378-22.112-10.879-45.875-17.896-69.96-20.658,24.48,24.606,53.626,38.818,87.108,40.425h5.893c24.833-8.344,40.469-28.933,51.112-44.828,4.482-6.694,9.558-16.421,7.612-18.342-20.164,10.499-38.603,20.711-56.111,35.388Z" style="fill:#e0e0e0;"></path><path d="M148.48,281.698c3.073-13.695,8.249-19.72,10.401-33.829,2.497-16.37,2.495-47.637-7.216-57.071-18.009,26.123-19.457,68.566-17.56,92.425-11.799-32.3-29.106-62.576-50.848-88.948-3.823,17.509-1.01,36.458,6.43,53.06,7.439,16.602,19.313,30.931,33.138,42.378-22.112-10.879-45.875-17.896-69.96-20.658,24.48,24.606,53.626,38.818,87.108,40.425h5.893c24.833-8.344,40.469-28.933,51.112-44.828,4.482-6.694,9.558-16.421,7.612-18.342-20.164,10.499-38.603,20.711-56.111,35.388Z" style="fill:#e0e0e0;"></path><g><g><g><path d="M443.92,309.575h-180.746c-3.232,0-5.862-2.63-5.862-5.862V40.439c0-3.232,2.63-5.862,5.862-5.862h180.746c3.232,0,5.862,2.629,5.862,5.862V303.713c0,3.233-2.63,5.862-5.862,5.862ZM263.174,34.828c-3.095,0-5.612,2.518-5.612,5.612V303.713c0,3.095,2.518,5.612,5.612,5.612h180.746c3.095,0,5.612-2.517,5.612-5.612V40.439c0-3.094-2.518-5.612-5.612-5.612h-180.746Z" style="fill:#e0e0e0;"></path><path d="M235.493,309.575H54.746c-3.232,0-5.862-2.63-5.862-5.862V40.439c0-3.232,2.629-5.862,5.862-5.862H235.493c3.232,0,5.862,2.629,5.862,5.862V303.713c0,3.233-2.63,5.862-5.862,5.862ZM54.746,34.828c-3.094,0-5.612,2.518-5.612,5.612V303.713c0,3.095,2.518,5.612,5.612,5.612H235.493c3.095,0,5.612-2.517,5.612-5.612V40.439c0-3.094-2.518-5.612-5.612-5.612H54.746Z" style="fill:#e0e0e0;"></path></g><rect x="0" y="370.644" width="500" height=".25" style="fill:#e0e0e0;"></rect></g><rect x="51.672" y="384.909" width="16.06" height=".25" style="fill:#e0e0e0;"></rect><rect x="170.352" y="382.199" width="53.53" height=".25" style="fill:#e0e0e0;"></rect><rect x="68.732" y="394.199" width="36.25" height=".25" style="fill:#e0e0e0;"></rect><rect x="300.893" y="388.299" width="53.89" height=".25" style="fill:#e0e0e0;"></rect></g><path d="M193.056,118.657c-3.769-2.848-9.269-3.171-13.346-.783-5.411-10.935-20.49-15.76-31.244-9.999-2.805-11.783-14.415-20.839-26.526-20.694-12.111,.146-23.499,9.479-26.02,21.326-.401,1.883-.666,3.945-2.013,5.32-2.188,2.234-5.84,1.484-8.957,1.241-9.808-.765-19.678,6.121-22.345,15.591l135.073-.492c1.183-4.573-.853-8.663-4.622-11.511Z" style="fill:#f0f0f0;"></path><path d="M277.985,73.711c-1.925-1.454-4.733-1.619-6.814-.4-2.763-5.583-10.462-8.047-15.953-5.105-1.432-6.016-7.36-10.64-13.544-10.566-6.184,.075-11.998,4.84-13.285,10.889-.205,.961-.34,2.015-1.028,2.717-1.117,1.141-2.982,.758-4.573,.634-5.008-.391-10.047,3.125-11.409,7.96l68.966-.251c.604-2.335-.436-4.423-2.36-5.877Z" style="fill:#f0f0f0;"></path><path d="M343.46,163.961c-2.549-1.925-6.267-2.144-9.023-.529-3.658-7.393-13.854-10.656-21.125-6.761-1.897-7.967-9.746-14.09-17.935-13.992-8.189,.099-15.888,6.409-17.593,14.419-.271,1.273-.45,2.668-1.361,3.597-1.479,1.511-3.948,1.004-6.056,.839-6.632-.517-13.305,4.139-15.108,10.541l91.327-.332c.8-3.092-.577-5.858-3.125-7.783Z" style="fill:#f0f0f0;"></path><path d="M451.96,134.986c-1.675-1.265-4.119-1.409-5.93-.348-2.404-4.859-9.104-7.003-13.883-4.443-1.246-5.235-6.405-9.26-11.786-9.195-5.381,.065-10.441,4.212-11.562,9.476-.178,.837-.296,1.753-.894,2.364-.972,.993-2.595,.66-3.98,.552-4.358-.34-8.743,2.72-9.929,6.927l60.018-.218c.526-2.032-.379-3.849-2.054-5.115Z" style="fill:#f0f0f0;"></path><path d="M203.631,61.055c-1.322-.999-3.252-1.112-4.682-.275-1.898-3.836-7.189-5.529-10.962-3.508-.984-4.134-5.057-7.311-9.306-7.26-4.249,.051-8.245,3.326-9.129,7.482-.14,.66-.234,1.384-.706,1.867-.767,.784-2.049,.521-3.143,.435-3.441-.268-6.904,2.148-7.84,5.47l47.39-.172c.415-1.605-.299-3.04-1.622-4.039Z" style="fill:#f0f0f0;"></path><path d="M416.689,86.593c-2.615-1.975-6.429-2.199-9.257-.543-3.753-7.585-14.213-10.932-21.672-6.936-1.946-8.173-9.999-14.455-18.4-14.354-8.401,.101-16.3,6.575-18.049,14.793-.278,1.306-.462,2.737-1.396,3.691-1.517,1.55-4.051,1.03-6.213,.861-6.804-.531-13.649,4.246-15.5,10.814l93.694-.341c.821-3.172-.592-6.009-3.206-7.985Z" style="fill:#f0f0f0;"></path></g><g id="freepik--Shadow--inject-101"><path d="M346.363,414.704c0,10.788-64.98,19.534-145.136,19.534s-145.136-8.746-145.136-19.534,64.98-19.534,145.136-19.534,145.136,8.746,145.136,19.534Z" style="fill:#f5f5f5;"></path><path d="M479.129,397.077c0,10.509-35.37,19.029-79.001,19.029s-79.001-8.52-79.001-19.029,35.37-19.03,79.001-19.03,79.001,8.52,79.001,19.03Z" style="fill:#f5f5f5;"></path></g><g id="freepik--Plant--inject-101"><g><path d="M240.583,191.68c-1.629,11.465-7.82,22.217-16.917,29.383,4.495,11.364-1.505,25.773-12.738,30.587,1.369,9.331-3.852,19.258-12.316,23.418l13.308,50.835c16.785-16.911,26.93-39.704,30.987-63.183,4.057-23.479,2.312-47.668-2.325-71.039Z" style="fill:#52BFA9;"></path><g style="opacity:.5;"><path d="M240.583,191.68c-1.629,11.465-7.82,22.217-16.917,29.383,4.495,11.364-1.505,25.773-12.738,30.587,1.369,9.331-3.852,19.258-12.316,23.418l13.308,50.835c16.785-16.911,26.93-39.704,30.987-63.183,4.057-23.479,2.312-47.668-2.325-71.039Z"></path></g><path d="M59.047,296.411c8.404,7.966,19.939,12.539,31.519,12.494,3.545,11.695,17.204,19.249,28.994,16.036,4.73,8.159,14.991,12.688,24.206,10.683l21.185,48.088c-23.661-2.808-45.778-14.352-63.555-30.218-17.776-15.866-31.45-35.896-42.349-57.083Z" style="fill:#52BFA9;"></path><g style="opacity:.6;"><path d="M59.047,296.411c8.404,7.966,19.939,12.539,31.519,12.494,3.545,11.695,17.204,19.249,28.994,16.036,4.73,8.159,14.991,12.688,24.206,10.683l21.185,48.088c-23.661-2.808-45.778-14.352-63.555-30.218-17.776-15.866-31.45-35.896-42.349-57.083Z"></path></g><path d="M135.053,120.357s13.174,30.622,3.205,44.508c0,0,4.967,12.818,3.73,24.213,0,0,6.24,20.296,1.967,30.978,0,0,6.196,13.175,1.496,23.857,0,0,8.579,21.037,1.761,32.773l26.937,80.495,18.944,5.793,23.5-58.692s-11.038-30.103-7.477-46.482c0,0-8.902-5.341-7.121-25.993,0,0-13.887-8.902-9.614-28.842,0,0-14.339-2.635-11.799-22.325,0,0-11.346-11.501-14.906-26.812,0,0-11.75-3.917-13.887-18.516l-16.735-14.955Z" style="fill:#52BFA9;"></path><path d="M135.053,120.357s13.174,30.622,3.205,44.508c0,0,4.967,12.818,3.73,24.213,0,0,6.24,20.296,1.967,30.978,0,0,6.196,13.175,1.496,23.857,0,0,8.579,21.037,1.761,32.773l26.937,80.495,18.944,5.793,23.5-58.692s-11.038-30.103-7.477-46.482c0,0-8.902-5.341-7.121-25.993,0,0-13.887-8.902-9.614-28.842,0,0-14.339-2.635-11.799-22.325,0,0-11.346-11.501-14.906-26.812,0,0-11.75-3.917-13.887-18.516l-16.735-14.955Z" style="opacity:.2;"></path><g><path d="M165.712,295.502c-.184,0-.361-.102-.449-.278l-4.513-9.11c-.123-.247-.021-.547,.226-.67,.247-.122,.548-.022,.67,.227l4.514,9.11c.123,.247,.021,.547-.226,.67-.072,.035-.147,.052-.222,.052Z" style="opacity:.4;"></path><path d="M170.53,287.805c-.201,0-.39-.121-.466-.32l-5.207-13.488c-.1-.257,.029-.547,.286-.646,.257-.098,.547,.028,.646,.287l5.207,13.488c.1,.257-.029,.547-.286,.646-.059,.022-.12,.033-.18,.033Z" style="opacity:.4;"></path><path d="M178.78,296.724c-.201,0-.391-.122-.467-.322-1.207-3.162-2.892-8.027-2.909-8.075-.09-.262,.048-.546,.309-.637,.262-.09,.545,.049,.636,.309,.017,.049,1.697,4.899,2.898,8.048,.098,.258-.031,.547-.289,.645-.059,.022-.119,.033-.178,.033Z" style="opacity:.4;"></path><path d="M177.069,307.576c-.183,0-.359-.101-.447-.274l-6.139-12.166c-.125-.247-.025-.548,.221-.672,.247-.125,.547-.025,.671,.221l6.139,12.166c.125,.247,.025,.548-.221,.672-.072,.036-.149,.054-.225,.054Z" style="opacity:.4;"></path><path d="M186.839,305.293c-.211,0-.408-.135-.476-.348l-3.688-11.494c-.084-.263,.061-.544,.323-.629,.265-.082,.544,.061,.629,.324l3.688,11.494c.084,.263-.061,.544-.323,.629-.051,.016-.103,.023-.153,.023Z" style="opacity:.4;"></path><path d="M174.819,279.36c-.184,0-.36-.102-.448-.276-1.41-2.827-2.24-5.989-2.401-9.144-.014-.275,.198-.511,.474-.524,.281-.03,.511,.197,.525,.474,.153,3.018,.948,6.043,2.296,8.747,.124,.248,.023,.548-.224,.671-.072,.036-.148,.053-.223,.053Z" style="opacity:.4;"></path><path d="M159.725,273.916c-.205,0-.396-.127-.47-.33l-3.525-9.762c-.094-.26,.041-.547,.3-.641,.262-.09,.547,.042,.64,.301l3.525,9.762c.094,.26-.041,.546-.3,.641-.056,.02-.113,.029-.17,.029Z" style="opacity:.4;"></path><path d="M166.525,263.795c-.214,0-.412-.138-.478-.353l-2.774-9.008c-.081-.265,.067-.544,.331-.625,.264-.085,.543,.066,.625,.33l2.774,9.008c.081,.265-.067,.544-.331,.625-.049,.016-.099,.022-.147,.022Z" style="opacity:.4;"></path><path d="M173.045,259.605c-.216,0-.415-.141-.479-.357l-1.34-4.518c-.079-.265,.073-.543,.337-.622,.265-.076,.543,.073,.622,.337l1.34,4.518c.079,.265-.073,.543-.337,.622-.047,.014-.095,.021-.142,.021Z" style="opacity:.4;"></path><path d="M156.598,254.95c-.189,0-.371-.108-.455-.292-.935-2.04-1.399-4.306-1.342-6.55,.007-.276,.236-.502,.513-.487,.276,.007,.494,.237,.487,.513-.053,2.093,.379,4.205,1.251,6.108,.115,.251,.005,.548-.246,.662-.068,.031-.139,.046-.208,.046Z" style="opacity:.4;"></path><path d="M161.91,247.741c-.202,0-.392-.123-.467-.323l-2.52-6.642c-.098-.258,.032-.547,.29-.645,.257-.098,.547,.032,.645,.29l2.52,6.642c.098,.258-.032,.547-.29,.645-.058,.022-.118,.033-.177,.033Z" style="opacity:.4;"></path><path d="M181.344,274.456c-.15,0-.298-.066-.396-.194-1.262-1.635-2.203-3.557-2.719-5.558-.069-.268,.091-.54,.359-.609,.266-.067,.54,.092,.609,.359,.483,1.87,1.363,3.667,2.543,5.196,.168,.219,.128,.532-.09,.701-.091,.07-.199,.104-.305,.104Z" style="opacity:.4;"></path><path d="M182.631,286.719c-.192,0-.376-.111-.458-.299l-1.247-2.841c-.111-.253,.004-.548,.257-.659,.252-.108,.548,.005,.659,.257l1.247,2.841c.111,.253-.004,.548-.257,.659-.065,.028-.134,.042-.201,.042Z" style="opacity:.4;"></path><path d="M159.643,281.682c-.192,0-.376-.111-.458-.299l-1.247-2.84c-.111-.253,.003-.548,.256-.659,.254-.11,.548,.004,.659,.257l1.248,2.84c.111,.253-.004,.548-.257,.659-.065,.028-.134,.042-.201,.042Z" style="opacity:.4;"></path><path d="M192.645,300.675c-.199,0-.387-.119-.465-.315l-2.046-5.151c-.102-.257,.023-.547,.28-.649,.257-.099,.547,.023,.649,.28l2.046,5.151c.102,.257-.023,.547-.28,.649-.061,.023-.123,.035-.185,.035Z" style="opacity:.4;"></path><g><path d="M154.979,228.894c-.217,0-.416-.142-.48-.359l-1.84-6.288c-.078-.265,.075-.543,.339-.621,.266-.078,.543,.075,.621,.339l1.84,6.288c.078,.265-.075,.543-.339,.621-.047,.014-.094,.02-.141,.02Z" style="fill:#fff; opacity:.4;"></path><path d="M162.789,234.49c-.2,0-.389-.121-.466-.318l-2.361-6.053c-.101-.257,.027-.547,.284-.647,.256-.1,.546,.026,.647,.284l2.361,6.053c.1,.257-.027,.547-.284,.647-.06,.023-.121,.034-.182,.034Z" style="fill:#fff; opacity:.4;"></path><path d="M159.592,221.157c-.23,0-.438-.16-.488-.395l-.817-3.791c-.058-.27,.113-.536,.383-.594,.271-.058,.536,.114,.594,.383l.817,3.791c.058,.27-.113,.536-.383,.594-.036,.008-.071,.011-.106,.011Z" style="fill:#fff; opacity:.4;"></path><path d="M152.539,213.588c-.212,0-.409-.136-.477-.349l-1.094-3.447c-.083-.263,.062-.544,.325-.628,.267-.083,.545,.062,.628,.325l1.094,3.447c.083,.263-.062,.544-.325,.628-.05,.016-.102,.023-.151,.023Z" style="fill:#fff; opacity:.4;"></path><path d="M156.108,207.851c-.222,0-.425-.149-.483-.375l-.304-1.176c-.069-.267,.091-.54,.358-.609,.266-.07,.54,.091,.609,.358l.304,1.176c.069,.268-.091,.54-.358,.609-.042,.011-.084,.016-.126,.016Z" style="fill:#fff; opacity:.4;"></path><path d="M153.382,198.027c-.227,0-.433-.155-.486-.386l-.972-4.157c-.063-.269,.104-.538,.373-.601,.268-.061,.538,.104,.601,.373l.972,4.157c.063,.269-.104,.538-.373,.601-.038,.009-.077,.013-.114,.013Z" style="fill:#fff; opacity:.4;"></path><path d="M150.851,184.949c-.033,0-.067-.003-.101-.01-.271-.056-.445-.32-.389-.59l.173-.842c.055-.271,.318-.444,.59-.389,.271,.056,.445,.32,.389,.59l-.173,.842c-.048,.236-.257,.399-.489,.399Z" style="fill:#fff; opacity:.4;"></path></g></g><path d="M30.587,304.281s8.619,14.365,16.007,26.678c7.388,12.313,20.111,29.141,41.864,47.61,21.753,18.47,50.894,33.245,77.983,38.17,27.089,4.925,29.962,4.925,29.962,4.925l1.642-25.857s-26.268-2.873-39.402-29.141c0,0-29.962-6.977-33.656-23.395,0,0-14.776-.41-20.932-11.082,0,0-18.059,2.463-25.857-13.955,0,0-29.551,1.642-47.61-13.955Z" style="fill:#52BFA9;"></path><g><path d="M148.455,389.845c-.057,0-.115-.01-.171-.03l-9.551-3.484c-.259-.095-.393-.382-.298-.641,.095-.26,.381-.393,.641-.299l9.551,3.484c.259,.095,.393,.382,.298,.642-.074,.202-.266,.328-.47,.328Z" style="opacity:.4;"></path><path d="M146.636,380.947c-.071,0-.144-.016-.213-.048l-13.073-6.177c-.25-.118-.356-.416-.239-.666,.118-.249,.416-.355,.666-.238l13.073,6.177c.25,.118,.356,.416,.239,.666-.085,.181-.265,.286-.453,.286Z" style="opacity:.4;"></path><path d="M165.006,390.757c-.056,0-.112-.009-.168-.029l-12.834-4.576c-.26-.093-.396-.379-.303-.639,.093-.26,.377-.399,.639-.303l12.834,4.576c.26,.093,.396,.379,.303,.639-.073,.204-.266,.332-.471,.332Z" style="opacity:.4;"></path><path d="M143.918,371.875c-.057,0-.114-.01-.17-.03-2.971-1.075-5.752-2.792-8.043-4.966-.2-.189-.208-.506-.019-.706s.506-.209,.707-.019c2.192,2.079,4.853,3.722,7.695,4.751,.26,.094,.394,.38,.3,.64-.074,.204-.266,.33-.47,.33Z" style="opacity:.4;"></path><path d="M128.677,374.136c-.075,0-.151-.017-.223-.053l-9.285-4.639c-.247-.123-.347-.424-.224-.671s.425-.349,.671-.224l9.285,4.639c.247,.123,.347,.424,.224,.671-.087,.175-.264,.276-.448,.276Z" style="opacity:.4;"></path><path d="M127.178,366.322c-.083,0-.167-.021-.244-.063l-8.221-4.609c-.241-.136-.327-.44-.191-.681,.135-.241,.438-.327,.681-.192l8.221,4.609c.241,.136,.327,.44,.191,.681-.092,.164-.261,.256-.437,.256Z" style="opacity:.4;"></path><path d="M124.035,355.32c-.084,0-.17-.021-.249-.066l-4.086-2.348c-.239-.138-.322-.443-.185-.683,.137-.239,.442-.323,.683-.185l4.086,2.348c.239,.138,.322,.443,.185,.683-.092,.161-.261,.251-.434,.251Z" style="opacity:.4;"></path><path d="M106.361,364.629c-.062,0-.125-.012-.186-.036-2.084-.832-3.982-2.151-5.489-3.816-.186-.205-.169-.521,.035-.707,.204-.184,.521-.169,.706,.035,1.405,1.553,3.175,2.784,5.119,3.561,.256,.102,.381,.393,.279,.649-.078,.195-.266,.314-.464,.314Z" style="opacity:.4;"></path><path d="M112.765,357.88c-.072,0-.146-.016-.216-.049l-6.405-3.072c-.249-.12-.354-.419-.234-.668,.119-.248,.416-.354,.667-.234l6.405,3.072c.249,.12,.354,.419,.234,.668-.086,.179-.265,.283-.451,.283Z" style="opacity:.4;"></path><path d="M115.747,348.274c-.064,0-.13-.013-.193-.039l-2.862-1.196c-.255-.106-.375-.399-.269-.654,.107-.255,.4-.374,.654-.268l2.862,1.196c.254,.106,.375,.398,.269,.653-.08,.192-.266,.308-.461,.308Z" style="opacity:.4;"></path><g><path d="M94.748,349.011c-.085,0-.171-.021-.25-.067l-5.669-3.285c-.239-.139-.321-.444-.182-.684,.138-.239,.443-.321,.683-.182l5.669,3.285c.239,.139,.321,.444,.182,.684-.093,.16-.261,.249-.433,.249Z" style="fill:#fff; opacity:.4;"></path><path d="M104.264,347.677c-.071,0-.143-.015-.211-.047l-5.884-2.755c-.25-.117-.358-.415-.241-.665s.415-.358,.665-.241l5.884,2.755c.25,.117,.358,.415,.241,.665-.085,.182-.265,.288-.453,.288Z" style="fill:#fff; opacity:.4;"></path><path d="M92.754,340.226c-.097,0-.195-.028-.281-.087l-3.206-2.182c-.229-.155-.288-.466-.132-.694,.157-.229,.467-.287,.695-.132l3.206,2.182c.229,.155,.288,.466,.132,.694-.097,.143-.254,.219-.414,.219Z" style="fill:#fff; opacity:.4;"></path><path d="M82.426,339.609c-.082,0-.164-.02-.24-.062l-3.169-1.742c-.242-.134-.331-.438-.197-.68,.133-.241,.438-.33,.679-.197l3.169,1.742c.242,.134,.331,.438,.197,.68-.091,.165-.262,.259-.438,.259Z" style="fill:#fff; opacity:.4;"></path><path d="M81.055,332.993c-.09,0-.182-.024-.265-.076l-1.03-.642c-.234-.146-.306-.454-.16-.688s.455-.306,.688-.161l1.032,.644c.234,.146,.305,.455,.159,.688-.095,.152-.258,.235-.424,.235Z" style="fill:#fff; opacity:.4;"></path><path d="M72.306,327.758c-.094,0-.189-.026-.273-.082l-3.571-2.34c-.231-.151-.295-.461-.144-.692,.151-.23,.461-.295,.692-.144l3.571,2.34c.231,.151,.295,.461,.145,.692-.096,.146-.256,.226-.419,.226Z" style="fill:#fff; opacity:.4;"></path><path d="M61.455,320.033c-.167,0-.329-.083-.424-.234l-.456-.729c-.146-.234-.075-.542,.16-.688s.542-.075,.689,.159l.455,.728c.146,.234,.076,.543-.158,.689-.083,.052-.174,.076-.265,.076Z" style="fill:#fff; opacity:.4;"></path></g></g><path d="M43.538,194.485c-.799-1.896,8.557,54.634,29.189,87.92,20.632,33.286,88.923,98.254,88.923,98.254l33.645-4.019-57.483-83.322s-39.415-20.48-43.57-38.265c0,0-36.528-26.918-50.703-60.569Z" style="fill:#52BFA9;"></path><path d="M43.538,194.485c-.799-1.896,8.557,54.634,29.189,87.92,20.632,33.286,88.923,98.254,88.923,98.254l33.645-4.019-57.483-83.322s-39.415-20.48-43.57-38.265c0,0-36.528-26.918-50.703-60.569Z" style="opacity:.2;"></path><g><path d="M159.359,342.211c-.133,0-.265-.053-.363-.156l-8.294-8.771c-.19-.201-.181-.518,.02-.707,.2-.19,.517-.181,.707,.02l8.294,8.771c.19,.201,.181,.518-.02,.707-.097,.092-.22,.137-.344,.137Z" style="opacity:.4;"></path><path d="M137.308,324.022c-.107,0-.215-.034-.307-.105-2.492-1.938-4.607-4.43-6.117-7.205-.132-.243-.042-.547,.201-.679,.242-.132,.546-.042,.678,.2,1.444,2.656,3.467,5.04,5.852,6.895,.218,.169,.257,.483,.087,.701-.098,.127-.246,.193-.395,.193Z" style="opacity:.4;"></path><path d="M123.101,313.572c-.134,0-.269-.054-.367-.161l-6.396-6.921c-.188-.203-.175-.52,.028-.707,.202-.188,.519-.176,.707,.027l6.396,6.923c.188,.202,.175,.519-.028,.706-.096,.089-.218,.133-.339,.133Z" style="opacity:.4;"></path><path d="M127.169,306.977c-.136,0-.272-.056-.371-.164l-3.162-3.494c-.186-.205-.169-.521,.035-.707,.205-.184,.521-.169,.706,.035l3.162,3.494c.186,.205,.169,.521-.035,.707-.096,.086-.216,.129-.335,.129Z" style="opacity:.4;"></path><path d="M111.999,301.092c-.124,0-.248-.046-.345-.138l-5.144-4.899c-.2-.19-.208-.507-.018-.707,.192-.2,.508-.206,.707-.018l5.144,4.899c.2,.19,.208,.507,.018,.707-.099,.104-.23,.155-.362,.155Z" style="opacity:.4;"></path><path d="M141.072,316.78c-.076,0-.152-.017-.224-.054-1.846-.929-3.525-2.255-4.855-3.835-.178-.212-.151-.527,.061-.705,.211-.179,.527-.15,.704,.061,1.244,1.478,2.814,2.718,4.54,3.587,.247,.124,.346,.425,.222,.671-.088,.175-.264,.275-.447,.275Z" style="opacity:.4;"></path><path d="M147.534,327.281c-.116,0-.231-.04-.326-.121l-2.353-2.022c-.209-.18-.233-.495-.054-.705,.182-.21,.497-.231,.705-.053l2.353,2.022c.209,.18,.233,.495,.054,.705-.099,.115-.239,.174-.379,.174Z" style="opacity:.4;"></path><path d="M162.598,335.536c-.122,0-.243-.044-.339-.133l-4.072-3.761c-.203-.188-.215-.504-.028-.706,.188-.205,.504-.216,.707-.028l4.072,3.761c.203,.188,.215,.503,.028,.706-.098,.107-.232,.161-.367,.161Z" style="opacity:.4;"></path><g><path d="M97.602,287.093c-.137,0-.273-.056-.372-.166l-4.378-4.874c-.185-.205-.167-.521,.038-.706,.204-.186,.52-.169,.706,.038l4.378,4.874c.185,.205,.167,.521-.038,.706-.095,.086-.215,.128-.334,.128Z" style="fill:#fff; opacity:.4;"></path><path d="M107.063,288.763c-.123,0-.245-.045-.342-.135l-4.745-4.438c-.202-.188-.212-.505-.024-.707,.189-.203,.506-.212,.707-.023l4.746,4.438c.202,.188,.212,.505,.023,.707-.099,.105-.232,.158-.365,.158Z" style="fill:#fff; opacity:.4;"></path><path d="M98.417,278.121c-.149,0-.297-.066-.396-.193l-2.375-3.064c-.169-.219-.129-.533,.089-.702,.217-.168,.532-.128,.701,.089l2.375,3.064c.169,.219,.129,.533-.089,.702-.091,.07-.199,.104-.306,.104Z" style="fill:#fff; opacity:.4;"></path><path d="M88.785,274.346c-.133,0-.266-.053-.364-.157l-2.477-2.635c-.189-.201-.18-.518,.021-.707,.201-.189,.518-.18,.707,.021l2.477,2.635c.189,.201,.179,.518-.021,.707-.097,.091-.22,.136-.343,.136Z" style="fill:#fff; opacity:.4;"></path><path d="M89.523,267.63c-.143,0-.285-.061-.383-.179l-.782-.929c-.178-.211-.151-.526,.06-.705,.212-.177,.527-.15,.705,.061l.783,.931c.178,.211,.15,.526-.062,.704-.093,.079-.208,.117-.321,.117Z" style="fill:#fff; opacity:.4;"></path><path d="M82.819,259.949c-.146,0-.292-.063-.39-.187l-2.674-3.328c-.173-.216-.139-.53,.077-.703,.215-.174,.53-.14,.703,.076l2.674,3.328c.173,.216,.139,.53-.077,.703-.092,.074-.203,.11-.312,.11Z" style="fill:#fff; opacity:.4;"></path><path d="M74.881,249.251c-.224,0-.428-.152-.485-.379l-.208-.833c-.066-.268,.096-.54,.364-.606,.265-.067,.539,.096,.606,.364l.208,.833c.066,.268-.096,.54-.364,.606-.041,.01-.082,.015-.122,.015Z" style="fill:#fff; opacity:.4;"></path></g></g><path d="M149.622,268.924c.015-.426,32.625,45.215,39.216,43.134,8.409-2.655,20.691-34.586,20.691-34.586l6.651,30.321-35.283,50.796s-31.294-25.105-31.274-25.874c.02-.769-5.872-52.517-5.872-52.517,0,0,5.684-5.938,5.872-11.274Z" style="opacity:.3;"></path><path d="M195.295,376.641l-7.901-11.453-1.523-1.032c-19.574-5.726-37.447-32.741-37.447-32.741-25.063-1.772-37.969-28.487-37.969-28.487-16.021-1.491-24.974-31.06-24.974-31.06-20.67-7.744-18.752-28.74-18.752-28.74,0,0-11.936-9.463-19.966-31.404,4.29,18.965,12.847,49.518,25.964,70.68,14.715,23.739,53.666,63.588,74.801,84.496l2.634,1.52,22.274,10.95,22.859-2.73Z" style="opacity:.3;"></path><path d="M197.247,408.374s-10.767,.927-25.695-4.252c-14.928-5.179-20.412-16.147-20.412-16.147-9.139,11.272-19.193-7.921-19.193-7.921-5.484,7.007-20.411-12.795-20.411-12.795-12.186,6.398-23.153-16.451-23.153-16.451-16.147,6.702-30.465-22.849-30.465-22.849-10.152-.725-22.598-16.975-27.309-23.661l-.021-.017s8.619,14.365,16.007,26.678c7.388,12.313,20.111,29.141,41.864,47.611,21.753,18.469,50.894,33.245,77.982,38.17,27.089,4.925,29.962,4.925,29.962,4.925l.844-13.291h0Z" style="opacity:.3;"></path><g><path d="M261.086,297.779c7.368-2.797,12.703-10.282,12.944-18.159,10.549-4.346,18.018-15.311,18.199-26.719,8.948-.467,16.719-8.885,16.47-17.841,10.009-.795,18.649-9.941,18.874-19.978,0,0,2.342,36.131,0,55.015s-32.191,84.914-59.326,112.049c-27.136,27.136-45.678,24.422-45.678,24.422l-15.829-21.379,54.347-87.41Z" style="fill:#52BFA9;"></path><g style="opacity:.2;"><path d="M261.086,297.779c7.368-2.797,12.703-10.282,12.944-18.159,10.549-4.346,18.018-15.311,18.199-26.719,8.948-.467,16.719-8.885,16.47-17.841,10.009-.795,18.649-9.941,18.874-19.978,0,0,2.342,36.131,0,55.015s-32.191,84.914-59.326,112.049c-27.136,27.136-45.678,24.422-45.678,24.422l-15.829-21.379,54.347-87.41Z"></path></g><g style="opacity:.3;"><path d="M268.247,381.995c27.136-27.136,56.985-93.166,59.326-112.049,1.84-14.842,.788-40.328,.253-50.563l-.191-.062c-2.096,13.467-4.191,26.934-6.287,40.401-.858,5.516-1.735,11.096-3.896,16.243-2.162,5.147-5.775,9.899-10.818,12.293-2.159,10.432-9.636,19.618-19.413,23.849-.375,11.816-10.992,22.384-22.81,22.703-5.083,14.051-17.827,25.054-32.469,28.032l-10.789,33.58,12.79,8.373c8.072-2.482,19.99-8.486,34.304-22.801Z"></path></g><g><path d="M250.159,352.992c-.113,0-.227-.038-.32-.116-.212-.178-.24-.493-.062-.705l9.276-11.089c.178-.213,.495-.239,.704-.063,.212,.178,.24,.493,.063,.704l-9.277,11.091c-.099,.118-.241,.179-.384,.179Z" style="opacity:.4;"></path><path d="M251.376,343.617c-.129,0-.258-.05-.355-.148-.194-.196-.192-.513,.004-.707,2.147-2.125,3.874-4.732,4.992-7.54,.103-.257,.394-.379,.649-.28,.257,.103,.382,.394,.28,.649-1.169,2.936-2.974,5.66-5.219,7.882-.098,.097-.225,.145-.352,.145Z" style="opacity:.4;"></path><path d="M261.69,331.555c-.103,0-.205-.031-.293-.095-.224-.162-.274-.475-.112-.698l5.529-7.632c.163-.226,.478-.271,.698-.112,.224,.162,.274,.475,.112,.698l-5.529,7.632c-.098,.136-.251,.207-.405,.207Z" style="opacity:.4;"></path><path d="M260.327,325.488c-.101,0-.201-.03-.289-.092-.226-.16-.278-.473-.119-.697l2.726-3.845c.161-.226,.474-.275,.697-.119,.226,.16,.278,.472,.119,.697l-2.726,3.845c-.098,.138-.252,.211-.408,.211Z" style="opacity:.4;"></path><path d="M273.938,326.382c-.123,0-.247-.045-.344-.137-.2-.19-.209-.507-.02-.707,1.438-1.52,2.529-3.38,3.153-5.379,.083-.263,.359-.411,.627-.328,.264,.083,.41,.363,.328,.627-.67,2.144-1.839,4.138-3.382,5.768-.099,.104-.23,.156-.363,.156Z" style="opacity:.4;"></path><path d="M271.233,317.846c-.112,0-.226-.037-.318-.114-.213-.177-.243-.491-.067-.704l4.526-5.475c.177-.214,.493-.243,.704-.067,.213,.177,.243,.491,.067,.704l-4.526,5.475c-.1,.12-.242,.182-.386,.182Z" style="opacity:.4;"></path><g><path d="M283.869,302.238c-.1,0-.2-.029-.288-.091-.226-.159-.279-.471-.121-.697l3.769-5.358c.16-.226,.473-.28,.696-.122,.227,.159,.28,.471,.122,.696l-3.769,5.36c-.098,.138-.252,.212-.409,.212Z" style="fill:#fff; opacity:.4;"></path><path d="M274.672,305.018c-.114,0-.229-.039-.322-.117-.211-.179-.238-.494-.061-.705l4.186-4.968c.181-.211,.495-.234,.705-.061,.211,.179,.238,.494,.061,.705l-4.186,4.968c-.1,.117-.241,.178-.383,.178Z" style="fill:#fff; opacity:.4;"></path><path d="M281.995,293.427c-.088,0-.177-.022-.257-.071-.237-.142-.314-.449-.172-.686l1.995-3.325c.143-.235,.45-.31,.687-.171,.236,.143,.313,.449,.171,.687l-1.995,3.323c-.094,.156-.26,.243-.429,.243Z" style="fill:#fff; opacity:.4;"></path><path d="M291.112,288.536c-.104,0-.207-.031-.297-.098-.222-.164-.27-.477-.105-.699l2.146-2.911c.164-.222,.478-.27,.699-.105,.222,.163,.27,.477,.105,.699l-2.146,2.911c-.098,.133-.249,.203-.402,.203Z" style="fill:#fff; opacity:.4;"></path><path d="M289.582,281.954c-.095,0-.189-.026-.274-.082-.23-.151-.295-.462-.144-.692l.667-1.015c.151-.231,.463-.297,.691-.145,.231,.15,.296,.461,.145,.691l-.667,1.017c-.096,.146-.256,.226-.418,.226Z" style="fill:#fff; opacity:.4;"></path><path d="M295.329,273.532c-.091,0-.183-.024-.265-.076-.234-.146-.306-.454-.159-.688l2.26-3.621c.147-.235,.457-.306,.688-.159,.234,.146,.306,.454,.159,.688l-2.26,3.621c-.095,.152-.258,.235-.424,.235Z" style="fill:#fff; opacity:.4;"></path><path d="M301.942,261.969c-.021,0-.043,0-.064-.004-.273-.035-.468-.285-.433-.56l.107-.853c.035-.274,.289-.47,.56-.433,.273,.035,.468,.285,.433,.56l-.107,.853c-.032,.252-.247,.437-.495,.437Z" style="fill:#fff; opacity:.4;"></path></g></g></g><path d="M246.961,362.973s-7.56,25.365-16.674,33.538l-7.175-12.093,30.019-52.467s10.634-22.945,10.429-23.506c-.205-.561-6.881,22.963-9.436,31.783-2.689,9.286-7.163,22.745-7.163,22.745Z" style="opacity:.4;"></path><g><path d="M190.622,348.639s16.827-24.25,17.322-40.087c0,0,11.878-17.322,12.373-26.23,0,0,11.848-16.332,11.121-28.704,0,0,11.15-10.393,10.655-24.745,0,0,8.439-14.77,6.701-23.461,0,0,5.959-3.476,4.966-14.899,0,0,8.194-10.429,6.456-20.61,0,0,7.698-6.953,7.698-16.885l4.47-2.483s.248,8.194,5.463,8.691c0,0,.248,39.73,.248,52.89s-4.718,33.77-6.456,47.179c-1.738,13.409-5.463,38.24-10.429,57.608-4.966,19.368-23.126,51.206-29.772,61.333-6.646,10.127-9.958,11.422-9.958,11.422l-30.857-41.02Z" style="fill:#52BFA9;"></path><path d="M278.094,212.115c0-13.161-.248-52.89-.248-52.89-2.28-.217-3.61-1.906-4.386-3.738,1.068,12.967-5.05,39.495-5.05,39.495,5.215,14.402-3.228,24.583-3.228,24.583,2.731,10.926-5.463,26.321-5.463,26.321,2.731,10.181-9.684,34.212-9.684,34.212,8.691,14.347-4.966,37.798-4.966,37.798,1.738,13.906-10.677,31.039-10.677,31.039,0,12.339-12.616,26.988-18.564,33.21l5.652,7.513s3.312-1.295,9.958-11.422c6.646-10.127,24.805-41.965,29.772-61.333s8.691-44.2,10.429-57.608c1.738-13.409,6.456-34.019,6.456-47.179Z" style="opacity:.3;"></path><g><path d="M211.801,368.973c-.089,0-.179-.023-.261-.074-.235-.144-.31-.452-.165-.688l5.313-8.667c.144-.234,.452-.311,.688-.164,.235,.144,.31,.452,.165,.688l-5.313,8.667c-.094,.153-.259,.238-.427,.238Z" style="opacity:.4;"></path><path d="M207.692,360.874c-.074,0-.149-.017-.221-.052-.248-.122-.35-.422-.227-.67l6.398-12.966c.122-.246,.422-.349,.669-.227,.248,.122,.35,.422,.227,.67l-6.398,12.966c-.087,.176-.264,.278-.449,.278Z" style="opacity:.4;"></path><path d="M198.675,369.016c-.074,0-.148-.017-.219-.051-.248-.121-.351-.421-.229-.669,1.479-3.028,3.588-7.706,3.609-7.753,.114-.251,.408-.364,.662-.251,.251,.113,.364,.409,.25,.661-.021,.047-2.137,4.74-3.623,7.782-.086,.177-.265,.28-.45,.28Z" style="opacity:.4;"></path><path d="M199.405,379.978c-.09,0-.182-.024-.264-.075-.234-.146-.306-.455-.16-.689l7.207-11.564c.146-.234,.454-.305,.689-.16,.234,.146,.306,.455,.16,.689l-7.207,11.564c-.095,.152-.258,.235-.425,.235Z" style="opacity:.4;"></path><path d="M204.181,352.078c-.082,0-.164-.02-.24-.062-.242-.133-.331-.438-.197-.68l4.412-8.029c.133-.241,.438-.331,.679-.197,.242,.133,.331,.438,.197,.68l-4.412,8.029c-.091,.165-.262,.259-.438,.259Z" style="opacity:.4;"></path><path d="M219.703,348.013c-.071,0-.143-.015-.211-.047-.25-.117-.358-.414-.242-.664l4.387-9.406c.117-.251,.415-.358,.665-.242,.25,.117,.358,.414,.242,.664l-4.387,9.406c-.085,.183-.265,.289-.454,.289Z" style="opacity:.4;"></path><path d="M213.839,337.321c-.063,0-.127-.012-.189-.037-.256-.104-.378-.396-.273-.652l3.573-8.722c.105-.255,.398-.377,.652-.273,.255,.104,.378,.396,.273,.652l-3.573,8.722c-.08,.193-.266,.311-.463,.311Z" style="opacity:.4;"></path><path d="M207.722,332.563c-.062,0-.124-.012-.185-.035-.257-.103-.382-.393-.28-.649l1.741-4.379c.103-.257,.392-.38,.649-.28,.257,.103,.382,.393,.28,.649l-1.741,4.379c-.078,.196-.266,.315-.465,.315Z" style="opacity:.4;"></path><path d="M224.521,329.404c-.073,0-.147-.016-.217-.05-.249-.12-.353-.419-.232-.668l2.181-4.511c.121-.248,.418-.353,.668-.232,.249,.12,.353,.419,.232,.668l-2.181,4.511c-.086,.179-.265,.282-.451,.282Z" style="opacity:.4;"></path><path d="M219.878,321.747c-.073,0-.148-.016-.218-.051-.248-.12-.352-.42-.231-.668l3.106-6.388c.121-.247,.421-.354,.668-.23,.249,.12,.352,.42,.231,.668l-3.106,6.388c-.086,.178-.265,.281-.45,.281Z" style="opacity:.4;"></path><path d="M198.124,346.608c-.122,0-.244-.044-.34-.133-.203-.188-.215-.505-.027-.707,1.313-1.417,2.35-3.128,3-4.947,.092-.261,.377-.399,.639-.303,.26,.093,.396,.379,.303,.639-.694,1.945-1.803,3.775-3.208,5.291-.099,.106-.232,.16-.367,.16Z" style="opacity:.4;"></path><path d="M195.739,358.705c-.082,0-.165-.02-.241-.062-.242-.133-.33-.438-.197-.679l1.497-2.716c.133-.242,.439-.333,.679-.196,.242,.133,.33,.438,.197,.679l-1.497,2.716c-.091,.165-.262,.259-.438,.259Z" style="opacity:.4;"></path><path d="M219.087,355.754c-.082,0-.165-.02-.241-.062-.242-.133-.33-.438-.196-.679l1.498-2.716c.134-.241,.439-.332,.679-.196,.242,.133,.33,.438,.197,.679l-1.498,2.716c-.091,.166-.262,.259-.438,.259Z" style="opacity:.4;"></path><path d="M224.2,363.348c-.076,0-.153-.018-.225-.054-.247-.125-.345-.426-.221-.672l2.501-4.947c.125-.245,.427-.343,.672-.221,.247,.125,.345,.426,.221,.672l-2.501,4.947c-.088,.174-.264,.274-.447,.274Z" style="opacity:.4;"></path><g><path d="M226.813,303.073c-.061,0-.123-.011-.183-.035-.257-.101-.383-.391-.282-.647l2.398-6.097c.102-.258,.393-.387,.648-.282,.257,.101,.383,.391,.282,.647l-2.398,6.097c-.078,.197-.266,.317-.465,.317Z" style="fill:#fff; opacity:.4;"></path><path d="M218.531,307.945c-.075,0-.151-.017-.222-.053-.248-.123-.348-.423-.225-.67l2.895-5.816c.123-.247,.424-.349,.67-.225,.248,.123,.348,.423,.225,.67l-2.895,5.816c-.087,.176-.265,.277-.448,.277Z" style="fill:#fff; opacity:.4;"></path><path d="M222.913,294.953c-.049,0-.099-.007-.149-.022-.264-.082-.411-.363-.329-.626l1.154-3.701c.083-.264,.361-.412,.626-.329,.264,.082,.411,.363,.329,.626l-1.154,3.701c-.067,.215-.264,.352-.478,.352Z" style="fill:#fff; opacity:.4;"></path><path d="M230.618,288.049c-.065,0-.13-.013-.193-.039-.255-.106-.375-.399-.268-.654l1.399-3.335c.106-.255,.399-.375,.654-.268,.254,.106,.375,.399,.268,.654l-1.399,3.335c-.08,.191-.266,.307-.461,.307Z" style="fill:#fff; opacity:.4;"></path><path d="M227.579,282.014c-.056,0-.112-.009-.168-.029-.26-.093-.396-.379-.303-.639l.409-1.144c.093-.262,.379-.395,.639-.303,.26,.093,.396,.379,.302,.639l-.408,1.144c-.073,.204-.266,.332-.471,.332Z" style="fill:#fff; opacity:.4;"></path><path d="M232.518,277.125c-.052,0-.105-.008-.157-.025-.262-.087-.404-.37-.317-.632l1.342-4.052c.086-.262,.371-.405,.632-.317,.262,.087,.404,.37,.317,.632l-1.342,4.052c-.069,.21-.265,.343-.475,.343Z" style="fill:#fff; opacity:.4;"></path><path d="M234.359,294.39c-.045,0-.09-.006-.135-.019-.266-.074-.421-.351-.347-.616l.72-2.574c.074-.266,.354-.419,.616-.347,.266,.074,.421,.351,.347,.616l-.72,2.574c-.062,.221-.263,.365-.481,.365Z" style="fill:#fff; opacity:.4;"></path><path d="M212.913,321.555c-.045,0-.09-.006-.135-.019-.266-.074-.421-.351-.347-.616l.72-2.575c.074-.267,.353-.422,.616-.347,.266,.074,.421,.35,.347,.616l-.72,2.575c-.062,.221-.263,.365-.481,.365Z" style="fill:#fff; opacity:.4;"></path><path d="M236.821,285.017c-.045,0-.09-.006-.135-.019-.266-.074-.421-.351-.347-.616l.72-2.574c.074-.267,.353-.423,.616-.347,.266,.074,.421,.35,.347,.616l-.72,2.574c-.062,.221-.263,.365-.481,.365Z" style="fill:#fff; opacity:.4;"></path></g></g></g><path d="M155.272,290.856s9.874,22.499,24.693,22.898c0,0,5.758,23.737,22.232,25.11,0,0,5.018,28.54,21.866,33.627l19.868,28.974s-11.257,5.412-10.708,5.177c.549-.235-65.896-65.033-65.896-65.033l-12.055-50.754Z" style="opacity:.3;"></path><path d="M137.819,341.892s13.57,29.329,9.783,36.995c0,0,19.069,26.277,19.474,29.278,0,0,12.947,10.51,14.84,13.5,0,0,23.188,.086,24.847,0s-68.944-79.773-68.944-79.773Z" style="opacity:.3;"></path><path d="M173.916,405.89s-14.212-28.458-21.82-30.269c0,0-2.174-23.187-19.926-39.852,0,0,1.811-18.477-10.144-26.81,0,0-2.014-20.288-7.709-34.78-5.695-14.492-3.159-48.909-3.159-48.909,0,0,9.42,19.926,18.477,23.911,0,0,10.869,26.447,21.738,29.708,0,0,7.608,32.484,25.36,37.436,0,0,8.424,20.531,20.515,27.777,0,0,7.996,20.374,17.415,28.345l24.136,34.197-4.44,10.16-39.578,2.589-20.864-13.503Z" style="fill:#52BFA9;"></path><path d="M166.137,416.753c.304-.014,36.797-11.617,42.505-20.243,0,0,14.61,3.572,23.912-2.417,9.302-5.989,12.382-15.036,12.382-15.036,0,0,18.923,.49,25.965-3.923,7.041-4.413,15.183-7.749,15.183-7.749l-2.86,17.113-60.112,26.05-56.975,6.204Z" style="opacity:.3;"></path><path d="M323.749,313.068c-2.539,9.839-10.846,19.169-21,18.8,.873,11.905-9.496,23.45-21.426,23.857,.018,8.408-3.966,16.737-10.523,21.999-6.557,5.262-15.552,7.348-23.756,5.509-1.719,8.016-7.307,15.11-14.697,18.66s-16.272,3.882-23.603,.212c-8.67,8.962-25.132,12.281-42.606,14.648,20.739,10.129,45.441,10.162,67.551,3.539,22.109-6.623,41.906-19.438,59.737-34.093,9.241-7.595,18.091-15.776,25.369-25.269,14.679-19.146,22.289-42.653,33.881-63.811-10.675,3.058-20.643,8.555-28.927,15.949Z" style="fill:#52BFA9;"></path><g><path d="M183.528,401.475c-.121,0-.242-.044-.338-.132l-7.484-6.881c-.203-.188-.217-.503-.03-.707,.188-.202,.503-.215,.707-.029l7.484,6.881c.203,.188,.217,.503,.03,.707-.099,.106-.233,.161-.368,.161Z" style="opacity:.4;"></path><path d="M185.261,392.561c-.136,0-.272-.056-.371-.164l-9.704-10.718c-.186-.205-.17-.521,.035-.707,.205-.185,.521-.168,.706,.035l9.704,10.718c.186,.205,.169,.521-.035,.707-.096,.086-.216,.129-.335,.129Z" style="opacity:.4;"></path><path d="M196.164,397.922c-.137,0-.273-.056-.372-.166-2.263-2.519-5.583-6.453-5.616-6.492-.178-.211-.151-.526,.06-.704,.212-.178,.526-.151,.705,.06,.033,.039,3.343,3.962,5.595,6.469,.185,.205,.167,.521-.038,.706-.095,.086-.215,.128-.334,.128Z" style="opacity:.4;"></path><path d="M198.463,408.665c-.12,0-.24-.043-.336-.13l-10.098-9.149c-.205-.185-.22-.501-.035-.706,.185-.204,.501-.22,.707-.034l10.098,9.149c.205,.185,.22,.501,.035,.706-.099,.108-.234,.164-.371,.164Z" style="opacity:.4;"></path><path d="M206.763,403.025c-.146,0-.291-.063-.39-.187l-7.569-9.403c-.173-.215-.139-.53,.076-.703,.214-.173,.529-.14,.703,.076l7.569,9.403c.173,.215,.139,.53-.076,.703-.092,.074-.203,.11-.313,.11Z" style="opacity:.4;"></path><path d="M186.23,383.14c-.121,0-.242-.043-.337-.131-2.331-2.132-4.241-4.784-5.524-7.671-.112-.252,.001-.548,.254-.66,.253-.11,.548,.002,.66,.254,1.228,2.762,3.055,5.3,5.285,7.339,.204,.187,.218,.503,.032,.707-.099,.107-.234,.162-.369,.162Z" style="opacity:.4;"></path><path d="M170.188,383.48c-.14,0-.279-.059-.378-.173l-6.795-7.846c-.181-.209-.158-.524,.051-.705,.208-.181,.525-.159,.705,.051l6.795,7.846c.181,.209,.158,.524-.051,.705-.094,.082-.211,.122-.327,.122Z" style="opacity:.4;"></path><path d="M172.901,371.591c-.148,0-.295-.065-.394-.191l-5.825-7.409c-.171-.217-.133-.531,.084-.702,.219-.169,.532-.133,.702,.085l5.825,7.409c.171,.217,.133,.531-.084,.701-.092,.072-.201,.107-.309,.107Z" style="opacity:.4;"></path><path d="M177.481,365.341c-.15,0-.298-.067-.397-.195l-2.874-3.735c-.168-.219-.127-.532,.092-.701,.219-.167,.532-.127,.701,.092l2.874,3.735c.168,.219,.127,.533-.092,.701-.091,.069-.198,.104-.304,.104Z" style="opacity:.4;"></path><path d="M160.458,366.902c-.126,0-.252-.047-.35-.143-1.605-1.568-2.852-3.516-3.605-5.631-.092-.261,.043-.546,.303-.639,.262-.097,.546,.043,.639,.303,.702,1.973,1.865,3.789,3.362,5.252,.197,.192,.201,.51,.008,.707-.098,.1-.228,.15-.357,.15Z" style="opacity:.4;"></path><path d="M162.827,358.267c-.137,0-.274-.057-.373-.167l-4.737-5.294c-.184-.205-.167-.521,.039-.706,.206-.184,.522-.165,.706,.04l4.737,5.294c.184,.205,.167,.521-.039,.706-.096,.085-.215,.127-.333,.127Z" style="opacity:.4;"></path><path d="M190.558,376.22c-.088,0-.178-.023-.259-.072-1.765-1.072-3.333-2.528-4.534-4.21-.161-.226-.108-.537,.116-.698,.224-.16,.537-.106,.697,.116,1.124,1.573,2.589,2.935,4.24,3.937,.236,.144,.311,.451,.167,.688-.094,.154-.259,.24-.428,.24Z" style="opacity:.4;"></path><path d="M196.164,387.201c-.129,0-.257-.05-.355-.148l-2.184-2.202c-.194-.195-.193-.513,.003-.707s.513-.192,.707,.004l2.184,2.202c.194,.195,.193,.513-.003,.707-.098,.097-.225,.145-.352,.145Z" style="opacity:.4;"></path><path d="M172.9,390.757c-.128,0-.257-.049-.355-.147l-2.184-2.204c-.194-.195-.193-.513,.003-.707,.197-.194,.513-.192,.707,.004l2.184,2.202c.194,.196,.193,.513-.003,.707-.097,.098-.225,.146-.352,.146Z" style="opacity:.4;"></path><path d="M210.522,396.63c-.135,0-.269-.054-.367-.161l-3.76-4.073c-.187-.203-.174-.52,.029-.706,.202-.188,.519-.176,.707,.028l3.759,4.073c.188,.203,.175,.519-.028,.706-.096,.089-.218,.133-.339,.133Z" style="opacity:.4;"></path><g><path d="M149.59,343.165c-.151,0-.299-.067-.398-.196l-3.976-5.207c-.167-.22-.125-.533,.094-.701,.221-.167,.533-.125,.701,.094l3.976,5.207c.167,.22,.125,.533-.094,.701-.09,.069-.197,.103-.303,.103Z" style="fill:#fff; opacity:.4;"></path><path d="M158.889,345.583c-.136,0-.271-.055-.37-.163l-4.377-4.801c-.186-.204-.171-.521,.033-.706,.205-.187,.521-.172,.707,.032l4.377,4.801c.186,.204,.171,.521-.033,.706-.096,.088-.216,.131-.337,.131Z" style="fill:#fff; opacity:.4;"></path><path d="M151.118,334.287c-.163,0-.323-.079-.419-.226l-2.124-3.245c-.151-.23-.086-.541,.145-.692,.23-.149,.541-.086,.692,.146l2.124,3.243c.151,.231,.086,.541-.145,.692-.084,.056-.18,.082-.273,.082Z" style="fill:#fff; opacity:.4;"></path><path d="M141.816,329.757c-.147,0-.292-.064-.391-.188l-2.259-2.824c-.172-.216-.137-.53,.078-.703,.216-.171,.531-.137,.703,.078l2.259,2.824c.172,.216,.137,.53-.078,.703-.092,.073-.203,.109-.312,.109Z" style="fill:#fff; opacity:.4;"></path><path d="M143.087,323.12c-.156,0-.309-.072-.407-.209l-.707-.988c-.161-.225-.108-.537,.116-.698,.225-.159,.537-.108,.697,.116l.706,.988c.161,.225,.109,.536-.115,.697-.088,.063-.19,.094-.291,.094Z" style="fill:#fff; opacity:.4;"></path><path d="M137.016,314.931c-.16,0-.317-.076-.414-.219l-2.401-3.53c-.155-.229-.096-.539,.132-.694s.54-.097,.695,.132l2.401,3.53c.155,.229,.096,.539-.132,.694-.086,.059-.184,.087-.281,.087Z" style="fill:#fff; opacity:.4;"></path><path d="M129.954,303.635c-.24,0-.452-.174-.493-.418l-.141-.847c-.045-.272,.138-.53,.411-.576,.271-.049,.53,.138,.576,.41l.141,.849c.045,.272-.139,.53-.411,.575-.028,.005-.056,.007-.083,.007Z" style="fill:#fff; opacity:.4;"></path></g></g><g><path d="M211.261,422.124c-.185,0-.363-.104-.45-.28-.121-.248-.019-.548,.23-.669l9.135-4.463c.246-.119,.548-.018,.668,.229,.121,.248,.019,.548-.23,.669l-9.135,4.463c-.07,.034-.145,.051-.219,.051Z" style="opacity:.4;"></path><path d="M228.181,418.643c-.169,0-.333-.086-.428-.24-.144-.236-.068-.544,.167-.688l12.356-7.508c.236-.142,.544-.066,.687,.168,.144,.236,.068,.544-.167,.688l-12.356,7.508c-.081,.049-.171,.072-.259,.072Z" style="opacity:.4;"></path><path d="M244.51,413.604c-.186,0-.364-.104-.45-.281-.121-.249-.017-.548,.231-.669,2.747-1.333,9.072-4.89,9.136-4.925,.238-.137,.545-.051,.681,.19,.136,.24,.051,.546-.19,.681-.063,.036-6.415,3.607-9.189,4.954-.07,.034-.145,.05-.218,.05Z" style="opacity:.4;"></path><path d="M247.454,406.403c-.165,0-.327-.082-.422-.231-.148-.232-.081-.541,.152-.69l8.75-5.583c.231-.146,.541-.08,.69,.153,.148,.232,.08,.542-.153,.69l-8.749,5.583c-.083,.053-.177,.078-.269,.078Z" style="opacity:.4;"></path><path d="M260.577,406.333c-.156,0-.311-.073-.408-.211-.159-.226-.106-.538,.119-.697l7.694-5.442c.225-.16,.536-.106,.697,.119,.159,.226,.105,.538-.119,.697l-7.694,5.442c-.088,.062-.188,.092-.289,.092Z" style="opacity:.4;"></path><path d="M262.554,395.063c-.154,0-.308-.072-.405-.207-.162-.224-.111-.536,.112-.698l3.818-2.762c.224-.16,.536-.111,.698,.112s.111,.536-.112,.698l-3.818,2.762c-.089,.063-.191,.095-.293,.095Z" style="opacity:.4;"></path><path d="M238.092,406.202c-.18,0-.354-.097-.443-.267-.129-.244-.035-.547,.209-.676,1.852-.976,3.483-2.385,4.718-4.076,.163-.222,.476-.273,.699-.108,.223,.162,.271,.476,.109,.698-1.325,1.813-3.074,3.325-5.06,4.371-.074,.039-.154,.058-.232,.058Z" style="opacity:.4;"></path><path d="M274.029,396.432c-.167,0-.331-.084-.426-.237-.145-.235-.071-.544,.163-.688l6.05-3.725c.231-.146,.542-.072,.688,.164,.145,.234,.071,.543-.164,.688l-6.048,3.725c-.082,.05-.173,.074-.263,.074Z" style="opacity:.4;"></path><path d="M270.062,387.19c-.177,0-.348-.094-.438-.26-.133-.242-.044-.547,.198-.679l2.721-1.489c.241-.134,.547-.044,.679,.198,.133,.242,.044,.547-.198,.679l-2.721,1.489c-.076,.042-.159,.062-.24,.062Z" style="opacity:.4;"></path><g><path d="M288.967,386.5c-.154,0-.307-.071-.404-.205-.162-.224-.113-.536,.109-.699l5.296-3.858c.223-.162,.536-.113,.698,.11,.162,.223,.113,.535-.11,.698l-5.294,3.858c-.089,.064-.192,.096-.295,.096Z" style="fill:#fff; opacity:.4;"></path><path d="M279.364,386.168c-.169,0-.334-.086-.428-.242-.143-.236-.067-.543,.17-.686l5.563-3.354c.234-.142,.543-.067,.686,.17,.143,.236,.067,.543-.17,.686l-5.563,3.354c-.08,.049-.17,.072-.258,.072Z" style="fill:#fff; opacity:.4;"></path><path d="M290.032,377.555c-.142,0-.283-.061-.382-.177-.178-.211-.152-.526,.059-.705l2.96-2.504c.211-.177,.526-.15,.705,.059,.178,.211,.152,.526-.059,.705l-2.96,2.504c-.094,.079-.209,.118-.323,.118Z" style="fill:#fff; opacity:.4;"></path><path d="M300.239,375.863c-.158,0-.313-.075-.411-.215-.157-.227-.101-.538,.126-.696l2.97-2.063c.227-.155,.538-.101,.696,.126,.157,.227,.101,.538-.126,.696l-2.97,2.063c-.087,.06-.187,.089-.285,.089Z" style="fill:#fff; opacity:.4;"></path><path d="M300.912,369.14c-.148,0-.296-.066-.395-.192-.17-.218-.131-.532,.087-.702l.959-.746c.216-.171,.53-.131,.701,.088,.17,.218,.13,.532-.088,.701l-.957,.746c-.092,.071-.2,.105-.308,.105Z" style="fill:#fff; opacity:.4;"></path><path d="M309.065,363.02c-.145,0-.288-.062-.388-.184-.174-.214-.143-.529,.071-.704l3.307-2.699c.214-.175,.528-.144,.703,.07s.144,.528-.07,.703l-3.307,2.701c-.093,.075-.205,.112-.316,.112Z" style="fill:#fff; opacity:.4;"></path><path d="M319.052,354.203c-.074,0-.149-.017-.22-.051-.248-.122-.351-.422-.229-.669l.377-.771c.122-.249,.425-.348,.669-.229,.248,.122,.351,.422,.229,.669l-.377,.771c-.087,.178-.265,.28-.449,.28Z" style="fill:#fff; opacity:.4;"></path></g></g></g></g><g id="freepik--Aloe_pieces--inject-101"><g><g><path d="M399.72,411.127s-15.018-4.158-23.837-11.951c-8.819-7.793-22.764-21.329-26.456-25.636-3.691-4.307-5.332-10.869-5.332-10.869l5.023,2.986,45.427,41.107,5.174,4.363Z" style="fill:#52BFA9;"></path><path d="M399.72,411.127s-15.018-4.158-23.837-11.951c-8.819-7.793-22.764-21.329-26.456-25.636-3.691-4.307-5.233-10.783-5.233-10.783l4.924,2.9,45.526,41.193,5.075,4.277Z" style="opacity:.4;"></path><path d="M464.275,383.178s-4.102-3.897-3.897-6.563,1.945-3.486,1.945-3.486c0,0-6.046-.205-8.097-1.23-2.051-1.025-8.819-9.024-9.434-10.459-.615-1.436,.82-2.871,.82-2.871,0,0-1.025,2.461-5.537,0-4.512-2.461-11.28-8.408-11.28-8.408,0,0-27.481-.205-38.761,2.666-11.28,2.871-8.203,3.486-23.38,3.486s-22.559,6.358-22.559,6.358c0,0,8.203,5.332,8.819,10.049,0,0,10.254,5.742,11.485,10.459,0,0,9.024,4.922,11.485,10.254,0,0,15.381,26.866,53.117,18.047,37.735-8.819,35.274-28.302,35.274-28.302Z" style="fill:#52BFA9;"></path><path d="M464.275,383.178s-4.102-3.897-3.897-6.563,1.945-3.486,1.945-3.486c0,0-6.046-.205-8.097-1.23-2.051-1.025-8.819-9.024-9.434-10.459-.615-1.436,.82-2.871,.82-2.871,0,0-1.025,2.461-5.537,0-4.512-2.461-11.28-8.408-11.28-8.408,0,0-27.481-.205-38.761,2.666-11.28,2.871-8.203,3.486-23.38,3.486s-22.559,6.358-22.559,6.358c0,0,8.203,5.332,8.819,10.049,0,0,10.254,5.742,11.485,10.459,0,0,9.024,4.922,11.485,10.254,0,0,15.381,26.866,53.117,18.047,37.735-8.819,35.274-28.302,35.274-28.302Z" style="opacity:.2;"></path><path d="M456.203,381.551c2.844,.559,4.401,3.66,3.351,6.361-2.529,6.511-10.812,18.033-33.63,21.107-24.994,3.368-37.691-4.357-40.607-8.613-2.915-4.256-7.998-10.87,11.075-10.664,19.073,.205,30.763-1.23,38.556-3.692,5.845-1.846,15.381-5.653,21.255-4.499Z" style="fill:#52BFA9;"></path><path d="M375.772,393.308c-2.546-5.282-11.415-10.124-11.415-10.124-1.23-4.717-11.485-10.459-11.485-10.459-.615-4.717-8.819-10.049-8.819-10.049,0,0,7.383-6.358,22.559-6.358s12.1-.615,23.38-3.486c11.28-2.871,38.761-2.666,38.761-2.666,0,0,6.768,5.947,11.28,8.408,3.026,1.65,4.479,1.087,5.111,.537-.365,.547-.777,1.44-.394,2.334,.615,1.436,7.383,9.434,9.434,10.459,2.051,1.025,8.097,1.23,8.097,1.23,0,0-1.739,.82-1.944,3.486-.205,2.666,3.897,6.563,3.897,6.563l.03,.543v.045c-.025-.031-4.629-5.582-12.703-5.86-8.096-.279-16.472,5.863-29.733,7.678-13.261,1.815-27.779-.863-36.015,1.313-4.933,1.304-8.202,4.292-10.04,6.405Z" style="fill:#52BFA9;"></path><g style="opacity:.3;"><path d="M420.622,372.782c-.124,0-.249-.046-.346-.139l-4.994-4.783c-.199-.191-.206-.508-.016-.707,.192-.198,.509-.206,.707-.016l4.994,4.783c.199,.191,.206,.508,.016,.707-.099,.103-.229,.154-.361,.154Z" style="fill:#fff;"></path><path d="M426.297,369.105c-.124,0-.249-.046-.346-.139l-4.995-4.783c-.199-.191-.206-.508-.016-.707,.191-.198,.508-.206,.707-.016l4.995,4.783c.199,.191,.206,.508,.016,.707-.099,.103-.229,.154-.361,.154Z"></path><path d="M407.795,369.798c-.124,0-.249-.046-.346-.139l-4.994-4.783c-.199-.191-.206-.508-.016-.707,.192-.198,.508-.206,.707-.016l4.994,4.783c.199,.191,.206,.508,.016,.707-.099,.103-.229,.154-.361,.154Z"></path><path d="M412.429,363.227c-.124,0-.249-.046-.346-.139l-4.994-4.783c-.199-.191-.206-.508-.016-.707,.192-.198,.508-.207,.707-.016l4.994,4.783c.199,.191,.206,.508,.016,.707-.099,.103-.229,.154-.361,.154Z"></path><path d="M394.56,364.263c-.124,0-.249-.046-.346-.139l-4.995-4.783c-.199-.191-.206-.508-.016-.707,.192-.198,.509-.207,.707-.016l4.995,4.783c.199,.191,.206,.508,.016,.707-.099,.103-.229,.154-.361,.154Z"></path><path d="M377.965,372.901c-.124,0-.249-.046-.346-.139l-4.994-4.783c-.199-.191-.206-.508-.016-.707,.192-.198,.509-.206,.707-.016l4.994,4.783c.199,.191,.206,.508,.016,.707-.099,.103-.229,.154-.361,.154Z"></path><path d="M398.817,371.378c-.124,0-.249-.046-.346-.139-.39-.373-.651-.624-.813-.806l-.013,.014-.823-.788c-.199-.191-.206-.508-.016-.707,.192-.198,.508-.207,.707-.016,.39,.373,.651,.624,.813,.806l.013-.014,.823,.788c.199,.191,.206,.508,.016,.707-.099,.103-.229,.154-.361,.154Z"></path><path d="M415.631,361.528c-.124,0-.249-.046-.346-.139-.39-.373-.651-.623-.813-.805l-.013,.014-.823-.788c-.199-.191-.206-.508-.016-.707,.191-.199,.508-.207,.707-.016,.39,.373,.651,.623,.813,.805l.013-.014,.823,.788c.199,.191,.206,.508,.016,.707-.099,.103-.229,.154-.361,.154Z"></path><path d="M373.181,362.843c-.124,0-.249-.046-.346-.139l-.823-.789-.025-.022-.801-.768c-.199-.191-.206-.508-.016-.707,.192-.198,.509-.207,.707-.016l.802,.768-.014,.017c.19,.152,.457,.408,.861,.795,.199,.191,.206,.508,.016,.707-.099,.103-.229,.154-.361,.154Z"></path><path d="M438.57,371.365c-.133,0-.266-.053-.363-.157-2.04-2.161-4.315-4.115-6.764-5.808-.228-.157-.284-.469-.127-.695,.156-.229,.469-.285,.695-.127,2.506,1.731,4.834,3.731,6.922,5.944,.189,.2,.181,.517-.021,.706-.096,.092-.22,.137-.343,.137Z" style="fill:#fff;"></path><path d="M395.736,375.653c-.133,0-.266-.053-.364-.157l-6.812-7.227c-.189-.201-.18-.518,.021-.707s.518-.181,.707,.021l6.812,7.227c.189,.201,.18,.518-.021,.707-.097,.091-.22,.136-.343,.136Z" style="fill:#fff;"></path><path d="M406.761,375.557c-.123,0-.246-.045-.342-.136l-2.186-2.052c-.202-.188-.212-.505-.022-.706,.188-.203,.507-.211,.706-.022l2.186,2.052c.202,.188,.212,.505,.022,.706-.098,.105-.231,.158-.364,.158Z" style="fill:#fff;"></path><path d="M436.291,376.21c-.115,0-.231-.039-.325-.12l-1.143-.979c-.21-.18-.234-.495-.055-.705,.18-.209,.497-.234,.705-.055l1.143,.979c.21,.18,.234,.495,.055,.705-.099,.115-.239,.175-.38,.175Z" style="fill:#fff;"></path><path d="M383.952,379.929c-.128,0-.256-.049-.354-.146l-4.734-4.728c-.195-.195-.195-.512,0-.707s.512-.195,.707,0l4.734,4.728c.195,.195,.195,.512,0,.707-.098,.098-.226,.146-.354,.146Z" style="fill:#fff;"></path><path d="M456.203,381.551c2.844,.559,4.401,3.66,3.351,6.361-2.529,6.511-10.812,18.033-33.63,21.107-24.994,3.368-37.691-4.357-40.607-8.613-2.915-4.256-7.998-10.87,11.075-10.664,19.073,.205,30.763-1.23,38.556-3.692,5.845-1.846,15.381-5.653,21.255-4.499Z" style="fill:#fff;"></path><path d="M372.165,374.097c-.116,0-.233-.04-.328-.123l-3.752-3.263c-.208-.181-.23-.496-.049-.705,.181-.207,.497-.231,.705-.049l3.752,3.263c.208,.181,.23,.497,.049,.705-.099,.113-.237,.172-.377,.172Z" style="fill:#fff;"></path><path d="M381.173,369c-.116,0-.233-.04-.328-.123l-2.618-2.274c-.208-.182-.23-.497-.05-.706,.183-.207,.497-.23,.706-.05l2.618,2.276c.208,.181,.23,.496,.049,.705-.099,.113-.237,.172-.377,.172Z" style="fill:#fff;"></path><path d="M418.018,381.431c-.118,0-.236-.042-.332-.126l-1.468-1.305c-.206-.184-.226-.5-.042-.706,.183-.207,.498-.225,.706-.042l1.468,1.305c.206,.184,.226,.5,.042,.706-.099,.111-.236,.168-.374,.168Z" style="fill:#fff;"></path><path d="M428.501,376.775c-.118,0-.236-.042-.332-.126-.246-.219-1.031-.932-1.815-1.644-.777-.706-1.553-1.41-1.797-1.627-.206-.184-.226-.5-.042-.706,.183-.207,.501-.225,.706-.042,.245,.218,1.024,.926,1.805,1.635,.781,.709,1.562,1.419,1.808,1.636,.206,.184,.226,.5,.042,.706-.099,.111-.236,.168-.374,.168Z" style="fill:#fff;"></path><path d="M427.003,360.287c-.096,0-.191-.027-.276-.083-2.005-1.329-3.894-2.856-5.613-4.539-.197-.193-.201-.51-.008-.707,.193-.198,.51-.199,.707-.008,1.675,1.639,3.515,3.126,5.467,4.42,.23,.153,.293,.463,.141,.693-.097,.146-.256,.224-.417,.224Z"></path><path d="M386.981,364.878c-.096,0-.191-.027-.276-.083-2.007-1.332-3.896-2.858-5.613-4.539-.197-.193-.201-.51-.008-.707,.192-.197,.509-.2,.707-.008,1.673,1.637,3.513,3.124,5.467,4.42,.23,.153,.293,.463,.141,.693-.097,.146-.256,.224-.417,.224Z"></path></g><g style="opacity:.2;"><path d="M417.733,401.656c.696-.42,1.527-.538,2.333-.645,6.311-.838,12.69-1.524,18.755-3.458,2.364-.754,4.759-1.756,6.401-3.618,1.308-1.484,2.022-3.384,2.978-5.117,.956-1.733,2.319-3.424,4.235-3.918,1.916-.494,4.334,.83,4.286,2.808h0c-.222,1.199-.706,2.337-1.43,3.318-3.697,5.004-9.084,8.678-14.91,10.922-6.444,2.482-13.421,3.317-20.326,3.384-1.374,.013-3.138-.306-3.397-1.655-.153-.799,.379-1.602,1.075-2.022Z" style="fill:#fff;"></path></g><path d="M353.058,358.25s21.751,23.155,46.654,16.481c24.903-6.674,33.943-20.534,33.943-20.534l-18.025-9.682-60.414,13.033-2.159,.702Z" style="opacity:.3;"></path></g><g><path d="M404.512,371.378s12.118-3.355,19.233-9.643,18.368-17.21,21.346-20.685c2.979-3.475,4.302-8.77,4.302-8.77l-4.053,2.41-36.654,33.168-4.175,3.521Z" style="fill:#52BFA9;"></path><path d="M404.512,371.378s12.118-3.355,19.233-9.643,18.368-17.21,21.346-20.685c2.979-3.475,4.222-8.701,4.222-8.701l-3.973,2.34-36.734,33.238-4.095,3.451Z" style="opacity:.4;"></path><path d="M352.424,348.828s3.31-3.144,3.144-5.295-1.569-2.813-1.569-2.813c0,0,4.878-.166,6.533-.993,1.655-.827,7.116-7.281,7.612-8.439,.496-1.158-.662-2.317-.662-2.317,0,0,.827,1.986,4.468,0,3.64-1.986,9.101-6.784,9.101-6.784,0,0,22.174-.166,31.275,2.151,9.101,2.317,6.619,2.813,18.864,2.813s18.202,5.13,18.202,5.13c0,0-6.619,4.302-7.115,8.108,0,0-8.274,4.633-9.267,8.439,0,0-7.281,3.971-9.267,8.274,0,0-12.411,21.677-42.859,14.562-30.448-7.115-28.462-22.836-28.462-22.836Z" style="fill:#52BFA9;"></path><path d="M352.424,348.828s3.31-3.144,3.144-5.295-1.569-2.813-1.569-2.813c0,0,4.878-.166,6.533-.993,1.655-.827,7.116-7.281,7.612-8.439,.496-1.158-.662-2.317-.662-2.317,0,0,.827,1.986,4.468,0,3.64-1.986,9.101-6.784,9.101-6.784,0,0,22.174-.166,31.275,2.151,9.101,2.317,6.619,2.813,18.864,2.813s18.202,5.13,18.202,5.13c0,0-6.619,4.302-7.115,8.108,0,0-8.274,4.633-9.267,8.439,0,0-7.281,3.971-9.267,8.274,0,0-12.411,21.677-42.859,14.562-30.448-7.115-28.462-22.836-28.462-22.836Z" style="opacity:.2;"></path><path d="M358.937,347.514c-2.295,.451-3.551,2.953-2.704,5.133,2.041,5.253,8.724,14.55,27.135,17.031,20.167,2.717,30.412-3.516,32.764-6.95,2.352-3.434,6.454-8.77-8.936-8.605-15.389,.165-24.822-.993-31.11-2.979-4.716-1.489-12.411-4.561-17.15-3.63Z" style="fill:#52BFA9;"></path><path d="M423.835,357.001c2.054-4.262,9.21-8.169,9.21-8.169,.993-3.806,9.267-8.439,9.267-8.439,.496-3.806,7.115-8.108,7.115-8.108,0,0-5.957-5.13-18.202-5.13s-9.763-.496-18.864-2.813c-9.101-2.317-31.275-2.151-31.275-2.151,0,0-5.461,4.799-9.101,6.784-2.441,1.332-3.614,.877-4.124,.433,.295,.442,.627,1.162,.318,1.883-.496,1.158-5.957,7.612-7.612,8.439-1.655,.827-6.533,.993-6.533,.993,0,0,1.404,.662,1.569,2.813,.165,2.151-3.144,5.295-3.144,5.295l-.024,.438v.037c.02-.025,3.735-4.504,10.25-4.728,6.533-.225,13.291,4.731,23.991,6.195,10.7,1.464,22.414-.696,29.059,1.06,3.98,1.052,6.618,3.463,8.101,5.168Z" style="fill:#52BFA9;"></path><g style="opacity:.3;"><path d="M387.646,340.536c-.132,0-.263-.052-.361-.154-.19-.199-.184-.516,.016-.707l4.029-3.859c.199-.191,.516-.184,.707,.016,.19,.199,.184,.516-.016,.707l-4.029,3.859c-.097,.093-.222,.139-.346,.139Z" style="fill:#fff;"></path><path d="M383.068,337.569c-.132,0-.263-.052-.361-.154-.19-.199-.184-.516,.016-.707l4.029-3.859c.199-.191,.516-.183,.707,.016,.19,.199,.184,.516-.016,.707l-4.029,3.859c-.097,.093-.222,.139-.346,.139Z"></path><path d="M397.996,338.128c-.132,0-.263-.052-.361-.154-.19-.199-.184-.516,.016-.707l4.03-3.859c.2-.191,.516-.184,.707,.016,.19,.199,.184,.516-.016,.707l-4.03,3.859c-.097,.093-.222,.139-.346,.139Z"></path><path d="M394.258,332.826c-.132,0-.263-.052-.361-.154-.19-.199-.184-.516,.016-.707l4.029-3.859c.2-.191,.516-.184,.707,.016,.19,.199,.184,.516-.016,.707l-4.029,3.859c-.097,.093-.222,.139-.346,.139Z"></path><path d="M408.676,333.661c-.132,0-.263-.052-.361-.154-.19-.199-.184-.516,.016-.707l4.03-3.858c.2-.191,.517-.184,.707,.016s.184,.516-.016,.707l-4.03,3.858c-.097,.093-.222,.139-.346,.139Z"></path><path d="M422.065,340.632c-.132,0-.263-.052-.361-.154-.19-.199-.184-.516,.016-.707l4.029-3.859c.199-.191,.516-.183,.707,.016,.19,.199,.184,.516-.016,.707l-4.029,3.859c-.097,.093-.222,.139-.346,.139Z"></path><path d="M405.24,339.402c-.132,0-.263-.052-.361-.154-.19-.199-.184-.516,.016-.707l.662-.635,.013,.014c.14-.159,.354-.364,.655-.653,.2-.191,.515-.184,.707,.016,.19,.199,.184,.516-.016,.707l-.662,.635-.013-.014c-.14,.159-.354,.364-.655,.653-.097,.093-.222,.139-.346,.139Z"></path><path d="M391.674,331.455c-.132,0-.263-.052-.361-.154-.19-.199-.184-.516,.016-.707,.302-.289,.516-.494,.681-.626l-.013-.014,.663-.635c.2-.191,.517-.183,.707,.016,.19,.199,.184,.516-.016,.707-.302,.289-.517,.495-.681,.627l.012,.013-.662,.635c-.097,.093-.222,.139-.346,.139Z"></path><path d="M425.926,332.517c-.132,0-.263-.052-.361-.154-.19-.199-.184-.516,.016-.707l1.331-1.274c.199-.191,.516-.183,.707,.016,.19,.199,.184,.516-.016,.707-.3,.287-.514,.491-.678,.624-.14,.158-.354,.363-.653,.65-.097,.093-.222,.139-.346,.139Z"></path><path d="M373.165,339.393c-.123,0-.246-.045-.343-.137-.201-.189-.21-.506-.021-.706,1.689-1.791,3.573-3.409,5.6-4.81,.226-.157,.539-.102,.695,.127,.157,.227,.101,.538-.127,.695-1.969,1.361-3.799,2.933-5.441,4.673-.098,.104-.23,.157-.363,.157Z" style="fill:#fff;"></path><path d="M407.726,342.853c-.123,0-.246-.045-.343-.136-.201-.189-.211-.506-.021-.707l5.496-5.831c.19-.201,.506-.21,.707-.021,.201,.189,.211,.506,.021,.707l-5.496,5.831c-.099,.104-.231,.157-.364,.157Z" style="fill:#fff;"></path><path d="M398.83,342.774c-.134,0-.267-.053-.365-.158-.188-.201-.178-.518,.023-.707l1.765-1.654c.199-.188,.518-.18,.706,.022,.189,.201,.18,.518-.022,.706l-1.765,1.656c-.097,.09-.219,.135-.342,.135Z" style="fill:#fff;"></path><path d="M375.004,343.302c-.141,0-.28-.059-.379-.174-.181-.21-.156-.525,.053-.705l.922-.791c.208-.18,.526-.154,.705,.055,.18,.21,.155,.525-.055,.705l-.92,.789c-.095,.081-.211,.121-.326,.121Z" style="fill:#fff;"></path><path d="M417.234,346.303c-.128,0-.256-.049-.354-.146-.195-.195-.195-.512,0-.707l3.82-3.815c.195-.195,.512-.195,.707,0s.195,.513,0,.707l-3.82,3.815c-.098,.098-.226,.146-.354,.146Z" style="fill:#fff;"></path><path d="M358.937,347.514c-2.295,.451-3.551,2.953-2.704,5.133,2.041,5.253,8.724,14.55,27.135,17.031,20.167,2.717,30.412-3.516,32.764-6.95,2.352-3.434,6.454-8.77-8.936-8.605-15.389,.165-24.822-.993-31.11-2.979-4.716-1.489-12.411-4.561-17.15-3.63Z" style="fill:#fff;"></path><path d="M426.745,341.597c-.14,0-.278-.059-.377-.172-.182-.208-.159-.524,.049-.705l3.027-2.633c.209-.183,.524-.159,.705,.049,.182,.208,.159,.524-.049,.705l-3.027,2.633c-.095,.083-.212,.123-.328,.123Z" style="fill:#fff;"></path><path d="M419.478,337.484c-.14,0-.278-.059-.377-.172-.182-.208-.159-.524,.049-.705l2.112-1.837c.208-.183,.524-.158,.705,.049,.182,.208,.159,.524-.049,.705l-2.112,1.837c-.095,.083-.212,.123-.328,.123Z" style="fill:#fff;"></path><path d="M389.748,347.514c-.138,0-.275-.057-.374-.168-.184-.206-.164-.522,.042-.706l1.185-1.053c.205-.183,.522-.166,.706,.042,.184,.206,.164,.522-.042,.706l-1.185,1.053c-.095,.084-.214,.126-.332,.126Z" style="fill:#fff;"></path><path d="M381.289,343.758c-.138,0-.275-.057-.374-.168-.184-.207-.164-.523,.042-.706,.203-.18,.859-.776,1.504-1.361,.614-.559,1.218-1.106,1.41-1.277,.205-.183,.522-.165,.706,.042,.184,.206,.164,.522-.042,.706-.191,.17-.791,.715-1.401,1.27-.648,.589-1.31,1.188-1.513,1.369-.096,.085-.214,.126-.332,.126Z" style="fill:#fff;"></path><path d="M382.498,330.454c-.161,0-.32-.078-.417-.224-.152-.23-.09-.54,.141-.693,1.568-1.04,3.048-2.235,4.396-3.555,.199-.191,.516-.189,.707,.008,.193,.197,.189,.514-.008,.707-1.394,1.363-2.922,2.599-4.543,3.674-.085,.056-.181,.083-.276,.083Z"></path><path d="M414.79,334.158c-.161,0-.32-.078-.417-.224-.152-.23-.09-.54,.141-.693,1.571-1.042,3.051-2.237,4.396-3.555,.197-.191,.516-.189,.707,.008,.193,.197,.189,.514-.008,.707-1.391,1.361-2.919,2.597-4.543,3.674-.085,.056-.181,.083-.276,.083Z"></path></g><g style="opacity:.2;"><path d="M389.977,363.737c-.562-.339-1.232-.434-1.883-.521-5.092-.676-10.239-1.23-15.133-2.79-1.908-.608-3.84-1.417-5.164-2.919-1.056-1.198-1.632-2.73-2.403-4.128-.771-1.398-1.871-2.763-3.417-3.161-1.546-.398-3.497,.67-3.458,2.266h0c.179,.967,.569,1.886,1.154,2.677,2.983,4.038,7.329,7.002,12.031,8.813,5.2,2.002,10.829,2.676,16.401,2.731,1.108,.011,2.532-.247,2.741-1.336,.123-.644-.305-1.293-.867-1.631Z" style="fill:#fff;"></path></g></g></g></g></svg>
